<mxfile host="app.diagrams.net" modified="2021-01-10T15:54:45.890Z" agent="5.0 (Windows NT 10.0; Win64; x64) AppleWebKit/537.36 (KHTML, like Gecko) Chrome/87.0.4280.141 Safari/537.36" etag="_UGiDd4mKVUNJYiheLv0" version="14.1.9" type="github" pages="3">
  <diagram id="Dv5o3WuPdHJ-4Mab7qom" name="UseCase:igranje connect 4">
    <mxGraphModel dx="1038" dy="585" grid="1" gridSize="10" guides="1" tooltips="1" connect="1" arrows="1" fold="1" page="1" pageScale="1" pageWidth="827" pageHeight="1169" math="0" shadow="0">
      <root>
        <mxCell id="0" />
        <mxCell id="1" parent="0" />
        <mxCell id="OXHmr7JrFFc4HPLkhsDo-1" value="igrač" style="shape=umlActor;verticalLabelPosition=bottom;verticalAlign=top;html=1;" vertex="1" parent="1">
          <mxGeometry x="50" y="185" width="30" height="60" as="geometry" />
        </mxCell>
        <mxCell id="OXHmr7JrFFc4HPLkhsDo-2" value="Use Case" style="ellipse;whiteSpace=wrap;html=1;" vertex="1" parent="1">
          <mxGeometry x="130" y="180" width="140" height="70" as="geometry" />
        </mxCell>
        <mxCell id="OXHmr7JrFFc4HPLkhsDo-6" value="" style="endArrow=none;html=1;entryX=0;entryY=0.5;entryDx=0;entryDy=0;exitX=0.5;exitY=0.5;exitDx=0;exitDy=0;exitPerimeter=0;" edge="1" parent="1" source="OXHmr7JrFFc4HPLkhsDo-1" target="OXHmr7JrFFc4HPLkhsDo-2">
          <mxGeometry width="50" height="50" relative="1" as="geometry">
            <mxPoint x="70" y="220" as="sourcePoint" />
            <mxPoint x="120" y="170" as="targetPoint" />
          </mxGeometry>
        </mxCell>
        <mxCell id="OXHmr7JrFFc4HPLkhsDo-7" value="unos igrača" style="ellipse;whiteSpace=wrap;html=1;" vertex="1" parent="1">
          <mxGeometry x="274" y="60" width="140" height="70" as="geometry" />
        </mxCell>
        <mxCell id="OXHmr7JrFFc4HPLkhsDo-9" value="izbor početnog igrača&lt;br&gt;(podijela boje)" style="ellipse;whiteSpace=wrap;html=1;" vertex="1" parent="1">
          <mxGeometry x="390" y="150" width="140" height="70" as="geometry" />
        </mxCell>
        <mxCell id="OXHmr7JrFFc4HPLkhsDo-10" value="postavljanje kuglica" style="ellipse;whiteSpace=wrap;html=1;" vertex="1" parent="1">
          <mxGeometry x="390" y="240" width="140" height="70" as="geometry" />
        </mxCell>
        <mxCell id="OXHmr7JrFFc4HPLkhsDo-11" value="bodovanje" style="ellipse;whiteSpace=wrap;html=1;" vertex="1" parent="1">
          <mxGeometry x="274" y="340" width="140" height="70" as="geometry" />
        </mxCell>
        <mxCell id="OXHmr7JrFFc4HPLkhsDo-17" value="Use" style="endArrow=open;endSize=12;dashed=1;html=1;exitX=0.5;exitY=0;exitDx=0;exitDy=0;entryX=0;entryY=1;entryDx=0;entryDy=0;" edge="1" parent="1" source="OXHmr7JrFFc4HPLkhsDo-2" target="OXHmr7JrFFc4HPLkhsDo-7">
          <mxGeometry width="160" relative="1" as="geometry">
            <mxPoint x="200" y="144.5" as="sourcePoint" />
            <mxPoint x="360" y="144.5" as="targetPoint" />
          </mxGeometry>
        </mxCell>
        <mxCell id="OXHmr7JrFFc4HPLkhsDo-19" value="Use" style="endArrow=open;endSize=12;dashed=1;html=1;exitX=0.806;exitY=0.074;exitDx=0;exitDy=0;exitPerimeter=0;entryX=0;entryY=0.5;entryDx=0;entryDy=0;" edge="1" parent="1" source="OXHmr7JrFFc4HPLkhsDo-2" target="OXHmr7JrFFc4HPLkhsDo-9">
          <mxGeometry width="160" relative="1" as="geometry">
            <mxPoint x="254" y="190" as="sourcePoint" />
            <mxPoint x="414" y="190" as="targetPoint" />
          </mxGeometry>
        </mxCell>
        <mxCell id="OXHmr7JrFFc4HPLkhsDo-20" value="Use" style="endArrow=open;endSize=12;dashed=1;html=1;exitX=0.571;exitY=1.023;exitDx=0;exitDy=0;exitPerimeter=0;entryX=0;entryY=0;entryDx=0;entryDy=0;" edge="1" parent="1" source="OXHmr7JrFFc4HPLkhsDo-2" target="OXHmr7JrFFc4HPLkhsDo-11">
          <mxGeometry width="160" relative="1" as="geometry">
            <mxPoint x="160" y="310" as="sourcePoint" />
            <mxPoint x="320" y="310" as="targetPoint" />
          </mxGeometry>
        </mxCell>
        <mxCell id="OXHmr7JrFFc4HPLkhsDo-21" value="Use" style="endArrow=open;endSize=12;dashed=1;html=1;exitX=1;exitY=1;exitDx=0;exitDy=0;" edge="1" parent="1" source="OXHmr7JrFFc4HPLkhsDo-2" target="OXHmr7JrFFc4HPLkhsDo-10">
          <mxGeometry width="160" relative="1" as="geometry">
            <mxPoint x="220" y="260" as="sourcePoint" />
            <mxPoint x="380" y="260" as="targetPoint" />
          </mxGeometry>
        </mxCell>
      </root>
    </mxGraphModel>
  </diagram>
  <diagram id="w79UpYeU1hFFh39leK5G" name="Activity: igranje connect 4">
    <mxGraphModel dx="1221" dy="688" grid="1" gridSize="10" guides="1" tooltips="1" connect="1" arrows="1" fold="1" page="1" pageScale="1" pageWidth="827" pageHeight="1169" math="0" shadow="0">
      <root>
        <mxCell id="wQ2KYIGQ5K3jvEPLGwNG-0" />
        <mxCell id="wQ2KYIGQ5K3jvEPLGwNG-1" parent="wQ2KYIGQ5K3jvEPLGwNG-0" />
        <mxCell id="qsF1L6x4BBJNtRPo1T-T-0" value="" style="ellipse;html=1;shape=startState;fillColor=#000000;strokeColor=#ff0000;" vertex="1" parent="wQ2KYIGQ5K3jvEPLGwNG-1">
          <mxGeometry x="200" y="40" width="30" height="30" as="geometry" />
        </mxCell>
        <mxCell id="qsF1L6x4BBJNtRPo1T-T-1" value="" style="edgeStyle=orthogonalEdgeStyle;html=1;verticalAlign=bottom;endArrow=open;endSize=8;strokeColor=#ff0000;" edge="1" source="qsF1L6x4BBJNtRPo1T-T-2" parent="wQ2KYIGQ5K3jvEPLGwNG-1">
          <mxGeometry relative="1" as="geometry">
            <mxPoint x="215" y="130" as="targetPoint" />
          </mxGeometry>
        </mxCell>
        <mxCell id="qsF1L6x4BBJNtRPo1T-T-3" value="" style="edgeStyle=orthogonalEdgeStyle;html=1;verticalAlign=bottom;endArrow=open;endSize=8;strokeColor=#ff0000;entryX=0.5;entryY=0;entryDx=0;entryDy=0;" edge="1" source="qsF1L6x4BBJNtRPo1T-T-2" parent="wQ2KYIGQ5K3jvEPLGwNG-1" target="hXWPoRYySfAi95ew-Ejw-9">
          <mxGeometry relative="1" as="geometry">
            <mxPoint x="215" y="200" as="targetPoint" />
          </mxGeometry>
        </mxCell>
        <mxCell id="hXWPoRYySfAi95ew-Ejw-5" value="podijela žetona" style="rounded=1;whiteSpace=wrap;html=1;arcSize=40;fontColor=#000000;fillColor=#ffffc0;strokeColor=#ff0000;" vertex="1" parent="wQ2KYIGQ5K3jvEPLGwNG-1">
          <mxGeometry x="155" y="220" width="120" height="40" as="geometry" />
        </mxCell>
        <mxCell id="hXWPoRYySfAi95ew-Ejw-6" value="" style="edgeStyle=orthogonalEdgeStyle;html=1;verticalAlign=bottom;endArrow=open;endSize=8;strokeColor=#ff0000;entryX=0.5;entryY=0;entryDx=0;entryDy=0;" edge="1" source="hXWPoRYySfAi95ew-Ejw-5" parent="wQ2KYIGQ5K3jvEPLGwNG-1" target="hXWPoRYySfAi95ew-Ejw-13">
          <mxGeometry relative="1" as="geometry">
            <mxPoint x="180" y="350" as="targetPoint" />
            <Array as="points" />
          </mxGeometry>
        </mxCell>
        <mxCell id="hXWPoRYySfAi95ew-Ejw-9" value="Izbor početnog igrača" style="rounded=1;whiteSpace=wrap;html=1;arcSize=40;fontColor=#000000;fillColor=#ffffc0;strokeColor=#ff0000;" vertex="1" parent="wQ2KYIGQ5K3jvEPLGwNG-1">
          <mxGeometry x="155" y="150" width="120" height="40" as="geometry" />
        </mxCell>
        <mxCell id="hXWPoRYySfAi95ew-Ejw-10" value="" style="edgeStyle=orthogonalEdgeStyle;html=1;verticalAlign=bottom;endArrow=open;endSize=8;strokeColor=#ff0000;entryX=0.5;entryY=0;entryDx=0;entryDy=0;" edge="1" source="hXWPoRYySfAi95ew-Ejw-9" parent="wQ2KYIGQ5K3jvEPLGwNG-1" target="hXWPoRYySfAi95ew-Ejw-5">
          <mxGeometry relative="1" as="geometry">
            <mxPoint x="410" y="350" as="targetPoint" />
          </mxGeometry>
        </mxCell>
        <mxCell id="hXWPoRYySfAi95ew-Ejw-13" value="ubacivanje žetona" style="rounded=1;whiteSpace=wrap;html=1;arcSize=40;fontColor=#000000;fillColor=#ffffc0;strokeColor=#ff0000;" vertex="1" parent="wQ2KYIGQ5K3jvEPLGwNG-1">
          <mxGeometry x="155" y="290" width="120" height="40" as="geometry" />
        </mxCell>
        <mxCell id="hXWPoRYySfAi95ew-Ejw-14" value="" style="edgeStyle=orthogonalEdgeStyle;html=1;verticalAlign=bottom;endArrow=open;endSize=8;strokeColor=#ff0000;entryX=0.5;entryY=0;entryDx=0;entryDy=0;" edge="1" source="hXWPoRYySfAi95ew-Ejw-13" parent="wQ2KYIGQ5K3jvEPLGwNG-1" target="hXWPoRYySfAi95ew-Ejw-30">
          <mxGeometry relative="1" as="geometry">
            <mxPoint x="215" y="370" as="targetPoint" />
          </mxGeometry>
        </mxCell>
        <mxCell id="qsF1L6x4BBJNtRPo1T-T-2" value="Unos igrača" style="rounded=1;whiteSpace=wrap;html=1;arcSize=40;fontColor=#000000;fillColor=#ffffc0;strokeColor=#ff0000;" vertex="1" parent="wQ2KYIGQ5K3jvEPLGwNG-1">
          <mxGeometry x="155" y="100" width="120" height="30" as="geometry" />
        </mxCell>
        <mxCell id="hXWPoRYySfAi95ew-Ejw-15" value="" style="edgeStyle=orthogonalEdgeStyle;html=1;verticalAlign=bottom;endArrow=open;endSize=8;strokeColor=#ff0000;" edge="1" parent="wQ2KYIGQ5K3jvEPLGwNG-1" source="qsF1L6x4BBJNtRPo1T-T-0" target="qsF1L6x4BBJNtRPo1T-T-2">
          <mxGeometry relative="1" as="geometry">
            <mxPoint x="215" y="130" as="targetPoint" />
            <mxPoint x="215" y="70" as="sourcePoint" />
          </mxGeometry>
        </mxCell>
        <mxCell id="hXWPoRYySfAi95ew-Ejw-28" value="" style="ellipse;html=1;shape=endState;fillColor=#000000;strokeColor=#ff0000;" vertex="1" parent="wQ2KYIGQ5K3jvEPLGwNG-1">
          <mxGeometry x="200" y="570" width="30" height="30" as="geometry" />
        </mxCell>
        <mxCell id="hXWPoRYySfAi95ew-Ejw-30" value="Provjera: jesu li sva 4 žetona poveznana" style="rhombus;whiteSpace=wrap;html=1;fillColor=#ffffc0;strokeColor=#ff0000;" vertex="1" parent="wQ2KYIGQ5K3jvEPLGwNG-1">
          <mxGeometry x="120" y="370" width="190" height="50" as="geometry" />
        </mxCell>
        <mxCell id="hXWPoRYySfAi95ew-Ejw-31" value="da" style="edgeStyle=orthogonalEdgeStyle;html=1;align=left;verticalAlign=bottom;endArrow=open;endSize=8;strokeColor=#ff0000;entryX=1;entryY=0.5;entryDx=0;entryDy=0;" edge="1" source="hXWPoRYySfAi95ew-Ejw-30" parent="wQ2KYIGQ5K3jvEPLGwNG-1" target="hXWPoRYySfAi95ew-Ejw-28">
          <mxGeometry x="-1" relative="1" as="geometry">
            <mxPoint x="360" y="390" as="targetPoint" />
            <Array as="points">
              <mxPoint x="340" y="395" />
              <mxPoint x="340" y="585" />
            </Array>
          </mxGeometry>
        </mxCell>
        <mxCell id="hXWPoRYySfAi95ew-Ejw-32" value="ne" style="edgeStyle=orthogonalEdgeStyle;html=1;align=left;verticalAlign=top;endArrow=open;endSize=8;strokeColor=#ff0000;entryX=0.5;entryY=0;entryDx=0;entryDy=0;" edge="1" source="hXWPoRYySfAi95ew-Ejw-30" parent="wQ2KYIGQ5K3jvEPLGwNG-1" target="hXWPoRYySfAi95ew-Ejw-34">
          <mxGeometry x="-1" relative="1" as="geometry">
            <mxPoint x="150" y="460" as="targetPoint" />
          </mxGeometry>
        </mxCell>
        <mxCell id="hXWPoRYySfAi95ew-Ejw-34" value="Ima li igrač još žetona?" style="rhombus;whiteSpace=wrap;html=1;fillColor=#ffffc0;strokeColor=#ff0000;" vertex="1" parent="wQ2KYIGQ5K3jvEPLGwNG-1">
          <mxGeometry x="135" y="460" width="160" height="40" as="geometry" />
        </mxCell>
        <mxCell id="hXWPoRYySfAi95ew-Ejw-35" value="da" style="edgeStyle=orthogonalEdgeStyle;html=1;align=left;verticalAlign=bottom;endArrow=open;endSize=8;strokeColor=#ff0000;entryX=1;entryY=0.5;entryDx=0;entryDy=0;" edge="1" source="hXWPoRYySfAi95ew-Ejw-34" parent="wQ2KYIGQ5K3jvEPLGwNG-1" target="hXWPoRYySfAi95ew-Ejw-13">
          <mxGeometry x="-1" relative="1" as="geometry">
            <mxPoint x="330" y="310" as="targetPoint" />
            <Array as="points">
              <mxPoint x="400" y="480" />
              <mxPoint x="400" y="310" />
            </Array>
          </mxGeometry>
        </mxCell>
        <mxCell id="hXWPoRYySfAi95ew-Ejw-36" value="ne" style="edgeStyle=orthogonalEdgeStyle;html=1;align=left;verticalAlign=top;endArrow=open;endSize=8;strokeColor=#ff0000;entryX=0.5;entryY=0;entryDx=0;entryDy=0;" edge="1" source="hXWPoRYySfAi95ew-Ejw-34" parent="wQ2KYIGQ5K3jvEPLGwNG-1" target="hXWPoRYySfAi95ew-Ejw-28">
          <mxGeometry x="-1" relative="1" as="geometry">
            <mxPoint x="220" y="560" as="targetPoint" />
          </mxGeometry>
        </mxCell>
      </root>
    </mxGraphModel>
  </diagram>
  <diagram id="3t8HidUZYK7G7I2xii8V" name="Activity: unos igrača">
    <mxGraphModel dx="1038" dy="585" grid="1" gridSize="10" guides="1" tooltips="1" connect="1" arrows="1" fold="1" page="1" pageScale="1" pageWidth="827" pageHeight="1169" math="0" shadow="0">
      <root>
        <mxCell id="mmzD2WWarZpLvol7dtI_-0" />
        <mxCell id="mmzD2WWarZpLvol7dtI_-1" parent="mmzD2WWarZpLvol7dtI_-0" />
        <mxCell id="mmzD2WWarZpLvol7dtI_-3" value="Sustav prikaže unos imena igrača 1 i igrača 2" style="rounded=1;whiteSpace=wrap;html=1;arcSize=40;fontColor=#000000;fillColor=#ffffc0;strokeColor=#ff0000;" vertex="1" parent="mmzD2WWarZpLvol7dtI_-1">
          <mxGeometry x="65" y="120" width="120" height="40" as="geometry" />
        </mxCell>
        <mxCell id="mmzD2WWarZpLvol7dtI_-4" value="" style="edgeStyle=orthogonalEdgeStyle;html=1;verticalAlign=bottom;endArrow=open;endSize=8;strokeColor=#ff0000;entryX=0.5;entryY=0;entryDx=0;entryDy=0;" edge="1" source="mmzD2WWarZpLvol7dtI_-3" parent="mmzD2WWarZpLvol7dtI_-1" target="mmzD2WWarZpLvol7dtI_-7">
          <mxGeometry relative="1" as="geometry">
            <mxPoint x="125" y="220" as="targetPoint" />
          </mxGeometry>
        </mxCell>
        <mxCell id="mmzD2WWarZpLvol7dtI_-5" value="" style="ellipse;html=1;shape=startState;fillColor=#000000;strokeColor=#ff0000;" vertex="1" parent="mmzD2WWarZpLvol7dtI_-1">
          <mxGeometry x="110" y="20" width="30" height="30" as="geometry" />
        </mxCell>
        <mxCell id="mmzD2WWarZpLvol7dtI_-6" value="" style="edgeStyle=orthogonalEdgeStyle;html=1;verticalAlign=bottom;endArrow=open;endSize=8;strokeColor=#ff0000;entryX=0.5;entryY=0;entryDx=0;entryDy=0;" edge="1" source="mmzD2WWarZpLvol7dtI_-5" parent="mmzD2WWarZpLvol7dtI_-1" target="mmzD2WWarZpLvol7dtI_-3">
          <mxGeometry relative="1" as="geometry">
            <mxPoint x="125" y="110" as="targetPoint" />
          </mxGeometry>
        </mxCell>
        <mxCell id="mmzD2WWarZpLvol7dtI_-7" value="Igrači unesu imena" style="rounded=1;whiteSpace=wrap;html=1;arcSize=40;fontColor=#000000;fillColor=#ffffc0;strokeColor=#ff0000;" vertex="1" parent="mmzD2WWarZpLvol7dtI_-1">
          <mxGeometry x="65" y="230" width="120" height="40" as="geometry" />
        </mxCell>
        <mxCell id="mmzD2WWarZpLvol7dtI_-8" value="" style="edgeStyle=orthogonalEdgeStyle;html=1;verticalAlign=bottom;endArrow=open;endSize=8;strokeColor=#ff0000;entryX=0.5;entryY=0;entryDx=0;entryDy=0;" edge="1" source="mmzD2WWarZpLvol7dtI_-7" parent="mmzD2WWarZpLvol7dtI_-1" target="mmzD2WWarZpLvol7dtI_-9">
          <mxGeometry relative="1" as="geometry">
            <mxPoint x="125" y="330" as="targetPoint" />
          </mxGeometry>
        </mxCell>
        <mxCell id="mmzD2WWarZpLvol7dtI_-9" value="Sustav provjeri valjanost imena" style="rounded=1;whiteSpace=wrap;html=1;arcSize=40;fontColor=#000000;fillColor=#ffffc0;strokeColor=#ff0000;" vertex="1" parent="mmzD2WWarZpLvol7dtI_-1">
          <mxGeometry x="65" y="340" width="120" height="40" as="geometry" />
        </mxCell>
        <mxCell id="mmzD2WWarZpLvol7dtI_-10" value="" style="edgeStyle=orthogonalEdgeStyle;html=1;verticalAlign=bottom;endArrow=open;endSize=8;strokeColor=#ff0000;entryX=0.5;entryY=0;entryDx=0;entryDy=0;" edge="1" source="mmzD2WWarZpLvol7dtI_-9" parent="mmzD2WWarZpLvol7dtI_-1" target="mmzD2WWarZpLvol7dtI_-11">
          <mxGeometry relative="1" as="geometry">
            <mxPoint x="125" y="440" as="targetPoint" />
          </mxGeometry>
        </mxCell>
        <mxCell id="mmzD2WWarZpLvol7dtI_-11" value="Valjana imena" style="rhombus;whiteSpace=wrap;html=1;fillColor=#ffffc0;strokeColor=#ff0000;" vertex="1" parent="mmzD2WWarZpLvol7dtI_-1">
          <mxGeometry x="85" y="460" width="80" height="40" as="geometry" />
        </mxCell>
        <mxCell id="mmzD2WWarZpLvol7dtI_-12" value="ne" style="edgeStyle=orthogonalEdgeStyle;html=1;align=left;verticalAlign=bottom;endArrow=open;endSize=8;strokeColor=#ff0000;entryX=1;entryY=0.5;entryDx=0;entryDy=0;" edge="1" source="mmzD2WWarZpLvol7dtI_-11" parent="mmzD2WWarZpLvol7dtI_-1" target="mmzD2WWarZpLvol7dtI_-3">
          <mxGeometry x="-1" relative="1" as="geometry">
            <mxPoint x="230" y="140" as="targetPoint" />
            <Array as="points">
              <mxPoint x="220" y="480" />
              <mxPoint x="220" y="140" />
            </Array>
          </mxGeometry>
        </mxCell>
        <mxCell id="mmzD2WWarZpLvol7dtI_-13" value="da" style="edgeStyle=orthogonalEdgeStyle;html=1;align=left;verticalAlign=top;endArrow=open;endSize=8;strokeColor=#ff0000;entryX=0.5;entryY=0;entryDx=0;entryDy=0;" edge="1" source="mmzD2WWarZpLvol7dtI_-11" parent="mmzD2WWarZpLvol7dtI_-1" target="mmzD2WWarZpLvol7dtI_-14">
          <mxGeometry x="-1" relative="1" as="geometry">
            <mxPoint x="120" y="560" as="targetPoint" />
          </mxGeometry>
        </mxCell>
        <mxCell id="mmzD2WWarZpLvol7dtI_-14" value="Sustav postavi igrače" style="rounded=1;whiteSpace=wrap;html=1;arcSize=40;fontColor=#000000;fillColor=#ffffc0;strokeColor=#ff0000;" vertex="1" parent="mmzD2WWarZpLvol7dtI_-1">
          <mxGeometry x="65" y="570" width="120" height="40" as="geometry" />
        </mxCell>
        <mxCell id="mmzD2WWarZpLvol7dtI_-15" value="" style="edgeStyle=orthogonalEdgeStyle;html=1;verticalAlign=bottom;endArrow=open;endSize=8;strokeColor=#ff0000;entryX=0.5;entryY=0;entryDx=0;entryDy=0;" edge="1" source="mmzD2WWarZpLvol7dtI_-14" parent="mmzD2WWarZpLvol7dtI_-1" target="mmzD2WWarZpLvol7dtI_-16">
          <mxGeometry relative="1" as="geometry">
            <mxPoint x="120" y="670" as="targetPoint" />
          </mxGeometry>
        </mxCell>
        <mxCell id="mmzD2WWarZpLvol7dtI_-16" value="" style="ellipse;html=1;shape=endState;fillColor=#000000;strokeColor=#ff0000;" vertex="1" parent="mmzD2WWarZpLvol7dtI_-1">
          <mxGeometry x="110" y="670" width="30" height="30" as="geometry" />
        </mxCell>
      </root>
    </mxGraphModel>
  </diagram>
</mxfile>
